<svg width="92" height="81" viewBox="0 0 92 81" fill="none" xmlns="http://www.w3.org/2000/svg">
<path d="M5.95447 21.6147L50.6927 7.71436L88.2374 35.0007L48.6374 75.6729L5.95447 21.6147Z" fill="url(#paint0_linear_40006532_8637)" stroke="url(#paint1_linear_40006532_8637)" stroke-width="0.22" stroke-miterlimit="10"/>
<path d="M50.6928 7.71436L48.6375 75.6729" stroke="url(#paint2_linear_40006532_8637)" stroke-width="0.25" stroke-miterlimit="10"/>
<path d="M88.2374 35.0007L5.95447 21.6147" stroke="url(#paint3_linear_40006532_8637)" stroke-width="0.25" stroke-miterlimit="10"/>
<path d="M5.9545 16.1089C3.19851 16.1089 0.968018 18.3418 0.968018 21.1009C0.968018 23.8599 3.19851 26.0928 5.9545 26.0928C8.7105 26.0928 10.941 23.8599 10.941 21.1009C10.941 18.3418 8.7105 16.1089 5.9545 16.1089Z" fill="#CECECE"/>
<path d="M50.6928 0.665039C47.9368 0.665039 45.7063 2.89798 45.7063 5.65701C45.7063 8.41603 47.9368 10.649 50.6928 10.649C53.4488 10.649 55.6793 8.41603 55.6793 5.65701C55.6793 2.89798 53.4488 0.665039 50.6928 0.665039Z" fill="#CECECE"/>
<path d="M48.6375 70.6812C45.8815 70.6812 43.651 72.9141 43.651 75.6731C43.651 78.4322 45.8815 80.6651 48.6375 80.6651C51.3935 80.6651 53.624 78.4322 53.624 75.6731C53.624 72.9141 51.3935 70.6812 48.6375 70.6812Z" fill="#CECECE"/>
<path d="M86.6959 30.0088C83.9399 30.0088 81.7094 32.2417 81.7094 35.0008C81.7094 37.7598 83.9399 39.9927 86.6959 39.9927C89.4519 39.9927 91.6824 37.7598 91.6824 35.0008C91.6824 32.2417 89.4519 30.0088 86.6959 30.0088Z" fill="#CECECE"/>
<defs>
<linearGradient id="paint0_linear_40006532_8637" x1="5.95447" y1="8.79463" x2="99.553" y2="34.5497" gradientUnits="userSpaceOnUse">
<stop stop-color="#3ECCC3"/>
<stop offset="0.985" stop-color="#3638A8"/>
</linearGradient>
<linearGradient id="paint1_linear_40006532_8637" x1="5.74426" y1="41.7229" x2="88.4359" y2="41.7229" gradientUnits="userSpaceOnUse">
<stop stop-color="#52A5E9"/>
<stop offset="0.03" stop-color="#58A0EA"/>
<stop offset="0.21" stop-color="#798DF1"/>
<stop offset="0.39" stop-color="#937EF7"/>
<stop offset="0.58" stop-color="#A574FB"/>
<stop offset="0.78" stop-color="#B06EFE"/>
<stop offset="1" stop-color="#B46CFF"/>
</linearGradient>
<linearGradient id="paint2_linear_40006532_8637" x1="48.4973" y1="41.6995" x2="50.8446" y2="41.6995" gradientUnits="userSpaceOnUse">
<stop stop-color="#52A5E9"/>
<stop offset="0.03" stop-color="#58A0EA"/>
<stop offset="0.21" stop-color="#798DF1"/>
<stop offset="0.39" stop-color="#937EF7"/>
<stop offset="0.58" stop-color="#A574FB"/>
<stop offset="0.78" stop-color="#B06EFE"/>
<stop offset="1" stop-color="#B46CFF"/>
</linearGradient>
<linearGradient id="paint3_linear_40006532_8637" x1="47.0959" y1="21.4745" x2="47.0959" y2="35.1527" gradientUnits="userSpaceOnUse">
<stop stop-color="#52A5E9"/>
<stop offset="0.03" stop-color="#58A0EA"/>
<stop offset="0.21" stop-color="#798DF1"/>
<stop offset="0.39" stop-color="#937EF7"/>
<stop offset="0.58" stop-color="#A574FB"/>
<stop offset="0.78" stop-color="#B06EFE"/>
<stop offset="1" stop-color="#B46CFF"/>
</linearGradient>
</defs>
</svg>
