<svg width="101" height="101" viewBox="0 0 101 101" fill="none" xmlns="http://www.w3.org/2000/svg">
<path d="M76.14 45.4196C82.1709 45.4196 87.06 40.5305 87.06 34.4996C87.06 28.4686 82.1709 23.5796 76.14 23.5796C70.109 23.5796 65.22 28.4686 65.22 34.4996C65.22 40.5305 70.109 45.4196 76.14 45.4196Z" fill="#E2E2E2"/>
<path d="M25.19 45.4196C31.221 45.4196 36.11 40.5305 36.11 34.4996C36.11 28.4686 31.221 23.5796 25.19 23.5796C19.1591 23.5796 14.27 28.4686 14.27 34.4996C14.27 40.5305 19.1591 45.4196 25.19 45.4196Z" fill="#E2E2E2"/>
<path d="M50.67 41.7797C58.7112 41.7797 65.23 35.2609 65.23 27.2197C65.23 19.1784 58.7112 12.6597 50.67 12.6597C42.6287 12.6597 36.11 19.1784 36.11 27.2197C36.11 35.2609 42.6287 41.7797 50.67 41.7797Z" fill="url(#paint0_linear_40006532_9017)" stroke="url(#paint1_linear_40006532_9017)" stroke-width="0.13" stroke-miterlimit="10"/>
<path d="M87.06 49.0496H74.19C75.47 51.2596 76.15 53.7696 76.15 56.3296V81.7996H90.71C92.72 81.7996 94.35 80.1696 94.35 78.1596V56.3296C94.35 52.3096 91.09 49.0496 87.07 49.0496H87.06Z" fill="#E2E2E2"/>
<path d="M27.15 49.0496H14.28C10.26 49.0496 7 52.3096 7 56.3296V78.1596C7 80.1696 8.63 81.7996 10.64 81.7996H25.2V56.3296C25.2 53.7696 25.87 51.2596 27.16 49.0496H27.15Z" fill="#E2E2E2"/>
<path d="M61.5799 41.7698H57.9399L50.6599 63.5998L43.3799 41.7698H39.7399C33.7099 41.7698 28.8199 46.6598 28.8199 52.6898V85.4398C28.8199 87.4498 30.4499 89.0798 32.4599 89.0798H68.8499C70.8599 89.0798 72.4899 87.4498 72.4899 85.4398V52.6898C72.4899 46.6598 67.5999 41.7698 61.5699 41.7698H61.5799Z" fill="url(#paint2_linear_40006532_9017)" stroke="url(#paint3_linear_40006532_9017)" stroke-width="0.13" stroke-miterlimit="10"/>
<defs>
<linearGradient id="paint0_linear_40006532_9017" x1="36.11" y1="13.1226" x2="69.9927" y2="20.8228" gradientUnits="userSpaceOnUse">
<stop stop-color="#3ECCC3"/>
<stop offset="0.985" stop-color="#3638A8"/>
</linearGradient>
<linearGradient id="paint1_linear_40006532_9017" x1="36.05" y1="27.2197" x2="65.29" y2="27.2197" gradientUnits="userSpaceOnUse">
<stop stop-color="#52A5E9"/>
<stop offset="0.03" stop-color="#58A0EA"/>
<stop offset="0.21" stop-color="#798DF1"/>
<stop offset="0.39" stop-color="#937EF7"/>
<stop offset="0.58" stop-color="#A574FB"/>
<stop offset="0.78" stop-color="#B06EFE"/>
<stop offset="1" stop-color="#B46CFF"/>
</linearGradient>
<linearGradient id="paint2_linear_40006532_9017" x1="28.8199" y1="42.5218" x2="80.0043" y2="53.2591" gradientUnits="userSpaceOnUse">
<stop stop-color="#3ECCC3"/>
<stop offset="0.985" stop-color="#3638A8"/>
</linearGradient>
<linearGradient id="paint3_linear_40006532_9017" x1="28.7699" y1="65.4298" x2="72.5599" y2="65.4298" gradientUnits="userSpaceOnUse">
<stop stop-color="#52A5E9"/>
<stop offset="0.03" stop-color="#58A0EA"/>
<stop offset="0.21" stop-color="#798DF1"/>
<stop offset="0.39" stop-color="#937EF7"/>
<stop offset="0.58" stop-color="#A574FB"/>
<stop offset="0.78" stop-color="#B06EFE"/>
<stop offset="1" stop-color="#B46CFF"/>
</linearGradient>
</defs>
</svg>
