<svg width="57" height="52" viewBox="0 0 57 52" fill="none" xmlns="http://www.w3.org/2000/svg">
<g clip-path="url(#clip0_40006532_8847)">
<path d="M53.1725 0.38916H3.83341C2.02318 0.38916 0.558594 1.86862 0.558594 3.69724V36.559C0.558594 38.3817 2.02904 39.8671 3.83341 39.8671H53.1725C54.9768 39.8671 56.4473 38.3817 56.4473 36.559V3.69724C56.4473 1.87454 54.9768 0.38916 53.1725 0.38916Z" fill="url(#paint0_linear_40006532_8847)" stroke="url(#paint1_linear_40006532_8847)" stroke-width="0.19" stroke-miterlimit="10"/>
<path d="M45.9666 48.0221H37.1264V43.1694H19.8794V48.0221H11.0391C10.137 48.0221 9.40466 48.7618 9.40466 49.6731C9.40466 50.5845 10.137 51.3242 11.0391 51.3242H45.9725C46.8747 51.3242 47.607 50.5845 47.607 49.6731C47.607 48.7618 46.8747 48.0221 45.9725 48.0221H45.9666Z" fill="#C6C6C6"/>
</g>
<defs>
<linearGradient id="paint0_linear_40006532_8847" x1="0.558593" y1="1.0167" x2="62.5318" y2="20.9556" gradientUnits="userSpaceOnUse">
<stop stop-color="#3ECCC3"/>
<stop offset="0.985" stop-color="#3638A8"/>
</linearGradient>
<linearGradient id="paint1_linear_40006532_8847" x1="0.50001" y1="20.1252" x2="56.5" y2="20.1252" gradientUnits="userSpaceOnUse">
<stop stop-color="#52A5E9"/>
<stop offset="0.03" stop-color="#58A0EA"/>
<stop offset="0.21" stop-color="#798DF1"/>
<stop offset="0.39" stop-color="#937EF7"/>
<stop offset="0.58" stop-color="#A574FB"/>
<stop offset="0.78" stop-color="#B06EFE"/>
<stop offset="1" stop-color="#B46CFF"/>
</linearGradient>
<clipPath id="clip0_40006532_8847">
<rect width="56" height="51" fill="white" transform="translate(0.5 0.330078)"/>
</clipPath>
</defs>
</svg>
