<svg width="100" height="100" viewBox="0 0 100 100" fill="none" xmlns="http://www.w3.org/2000/svg">
<path d="M22.0358 45.6193C16.8168 52.7395 12 59.8779 12 69.018C12 85.4062 25.2897 98.6959 41.6779 98.6959C58.0661 98.6959 71.3467 85.4154 71.3467 69.018C71.3467 59.8779 66.5299 52.7395 61.3109 45.6193L41.6688 20.5754L22.0267 45.6193H22.0358Z" fill="url(#paint0_linear_40006532_8936)"/>
<path d="M46.0926 32.2291C46.0926 30.4102 46.3485 28.701 46.7781 27.0832L41.6779 20.5754L22.0358 45.6193C16.8168 52.7395 12 59.8779 12 69.018C12 85.4062 25.2897 98.6868 41.6779 98.6868C58.0661 98.6868 71.3467 85.4062 71.3467 69.0089C71.3467 63.6345 69.6741 58.9547 67.2428 54.5584C55.4703 53.9185 46.0926 44.1478 46.0926 32.2199V32.2291Z" fill="url(#paint1_linear_40006532_8936)"/>
<path d="M55.5252 16.8188C52.0885 21.5077 48.9169 26.2057 48.9169 32.2291C48.9169 43.0235 57.664 51.7706 68.4584 51.7706C79.2529 51.7706 88 43.0235 88 32.2291C88 26.2149 84.8283 21.5077 81.3917 16.8188L68.4676 0.330078L55.5343 16.8188H55.5252Z" fill="#E2E2E2"/>
<defs>
<linearGradient id="paint0_linear_40006532_8936" x1="12" y1="21.8172" x2="82.5177" y2="33.9919" gradientUnits="userSpaceOnUse">
<stop stop-color="#3ECCC3"/>
<stop offset="0.985" stop-color="#3638A8"/>
</linearGradient>
<linearGradient id="paint1_linear_40006532_8936" x1="12" y1="21.8171" x2="82.5172" y2="33.9931" gradientUnits="userSpaceOnUse">
<stop stop-color="#3ECCC3"/>
<stop offset="0.985" stop-color="#3638A8"/>
</linearGradient>
</defs>
</svg>
