<svg width="101" height="101" viewBox="0 0 101 101" fill="none" xmlns="http://www.w3.org/2000/svg">
<g clip-path="url(#clip0_40006532_8627)">
<path d="M68.5096 71.565C65.7513 71.5566 63.5263 69.315 63.5346 66.565C63.5346 65.265 64.0513 64.015 64.9596 63.09C72.7513 55.265 72.7513 42.615 64.9596 34.7816C63.0513 32.79 63.1263 29.6316 65.118 27.7316C67.0596 25.8733 70.1346 25.89 72.0596 27.7733C83.693 39.49 83.693 58.39 72.0596 70.1066C71.118 71.0483 69.843 71.5733 68.5096 71.5733V71.565ZM36.7013 70.1233C38.6596 68.19 38.6763 65.0316 36.743 63.0733C28.9513 55.2483 28.9513 42.5983 36.743 34.765C38.7096 32.84 38.743 29.6816 36.818 27.7066C34.893 25.74 31.7346 25.7066 29.7596 27.6316C29.718 27.6733 29.6846 27.7066 29.643 27.7483C18.0096 39.465 18.0096 58.365 29.643 70.0816C31.5763 72.04 34.7346 72.0566 36.693 70.1233H36.7013ZM50.8513 37.3316C44.4513 37.3316 39.268 42.515 39.268 48.915C39.268 55.315 44.4513 60.4983 50.8513 60.4983C57.2513 60.4983 62.4346 55.315 62.4346 48.915C62.4346 42.515 57.2513 37.3316 50.8513 37.3316Z" fill="url(#paint0_linear_40006532_8627)" stroke="url(#paint1_linear_40006532_8627)" stroke-width="0.22" stroke-miterlimit="10"/>
<path d="M87.9264 82.1984C105.01 63.2984 105.01 34.5401 87.9264 15.6401C86.0764 13.5984 82.9264 13.4401 80.8764 15.2901C78.8264 17.1401 78.6764 20.2901 80.5264 22.3401C94.1681 37.4401 94.1681 60.4068 80.5264 75.5068C78.6764 77.5484 78.8347 80.7068 80.8764 82.5568C82.9181 84.4068 86.0764 84.2484 87.9264 82.2068V82.1984Z" fill="#E2E2E2"/>
<path d="M20.818 82.5401C22.8597 80.6901 23.018 77.5401 21.1764 75.4985C7.5347 60.4068 7.5347 37.4318 21.1764 22.3318C23.0264 20.2901 22.868 17.1318 20.8264 15.2818C18.7847 13.4318 15.6264 13.5901 13.7764 15.6318C-3.30697 34.5318 -3.30697 63.2901 13.7764 82.1901C15.6264 84.2318 18.7764 84.3901 20.818 82.5401Z" fill="#E2E2E2"/>
</g>
<defs>
<linearGradient id="paint0_linear_40006532_8627" x1="20.918" y1="26.9306" x2="88.1282" y2="47.0882" gradientUnits="userSpaceOnUse">
<stop stop-color="#3ECCC3"/>
<stop offset="0.985" stop-color="#3638A8"/>
</linearGradient>
<linearGradient id="paint1_linear_40006532_8627" x1="20.8346" y1="48.89" x2="80.8763" y2="48.89" gradientUnits="userSpaceOnUse">
<stop stop-color="#52A5E9"/>
<stop offset="0.03" stop-color="#58A0EA"/>
<stop offset="0.21" stop-color="#798DF1"/>
<stop offset="0.39" stop-color="#937EF7"/>
<stop offset="0.58" stop-color="#A574FB"/>
<stop offset="0.78" stop-color="#B06EFE"/>
<stop offset="1" stop-color="#B46CFF"/>
</linearGradient>
<clipPath id="clip0_40006532_8627">
<rect width="100" height="100" fill="white" transform="translate(0.968018 0.665039)"/>
</clipPath>
</defs>
</svg>
