<svg width="46" height="65" viewBox="0 0 46 65" fill="none" xmlns="http://www.w3.org/2000/svg">
<g clip-path="url(#clip0_40006532_8857)">
<path d="M23 64.3299C33.2078 64.3299 41.483 62.7137 41.483 60.7201C41.483 58.7265 33.2078 57.1104 23 57.1104C12.7921 57.1104 4.51697 58.7265 4.51697 60.7201C4.51697 62.7137 12.7921 64.3299 23 64.3299Z" fill="black" fill-opacity="0.13"/>
<path d="M23 0.520508C10.6764 0.520508 0.686523 10.7108 0.686523 23.2815C0.686523 35.8522 23 60.7205 23 60.7205C23 60.7205 45.3135 35.8522 45.3135 23.2815C45.3135 10.7108 35.3236 0.520508 23 0.520508ZM23 33.8181C17.797 33.8181 13.5792 29.5156 13.5792 24.2083C13.5792 18.901 17.797 14.5986 23 14.5986C28.203 14.5986 32.4209 18.901 32.4209 24.2083C32.4209 29.5156 28.203 33.8181 23 33.8181Z" fill="url(#paint0_linear_40006532_8857)" stroke="url(#paint1_linear_40006532_8857)" stroke-width="0.77" stroke-miterlimit="10"/>
</g>
<defs>
<linearGradient id="paint0_linear_40006532_8857" x1="0.686523" y1="1.47745" x2="53.7872" y2="10.4235" gradientUnits="userSpaceOnUse">
<stop stop-color="#3ECCC3"/>
<stop offset="0.985" stop-color="#3638A8"/>
</linearGradient>
<linearGradient id="paint1_linear_40006532_8857" x1="0.50002" y1="30.6668" x2="45.5" y2="30.6668" gradientUnits="userSpaceOnUse">
<stop stop-color="#52A5E9"/>
<stop offset="0.03" stop-color="#58A0EA"/>
<stop offset="0.21" stop-color="#798DF1"/>
<stop offset="0.39" stop-color="#937EF7"/>
<stop offset="0.58" stop-color="#A574FB"/>
<stop offset="0.78" stop-color="#B06EFE"/>
<stop offset="1" stop-color="#B46CFF"/>
</linearGradient>
<clipPath id="clip0_40006532_8857">
<rect width="45" height="64" fill="white" transform="translate(0.5 0.330078)"/>
</clipPath>
</defs>
</svg>
