<svg width="100" height="100" viewBox="0 0 100 100" fill="none" xmlns="http://www.w3.org/2000/svg">
<g clip-path="url(#clip0_40006532_8926)">
<path d="M28.8513 25.4676V2.33838H58.1698V25.4676C58.1698 26.315 57.1519 26.7553 56.5345 26.1738L53.9564 23.7562C53.5809 23.4072 52.9969 23.4072 52.6298 23.7562L49.0756 27.0876C48.7001 27.4366 48.1161 27.4366 47.749 27.0876L44.1947 23.7562C43.8193 23.4072 43.2352 23.4072 42.8681 23.7562L39.3139 27.0876C38.9384 27.4366 38.3544 27.4366 37.9873 27.0876L34.4247 23.7478C34.0492 23.3989 33.4652 23.3989 33.0981 23.7478L30.5033 26.1738C29.8859 26.7553 28.868 26.315 28.868 25.4676H28.8513Z" fill="url(#paint0_linear_40006532_8926)" stroke="url(#paint1_linear_40006532_8926)" stroke-width="0.22" stroke-miterlimit="10"/>
<path d="M98.1593 69.3L95.8148 68.8846C95.189 68.7766 94.7135 68.3113 94.5549 67.7049C94.071 65.927 93.3618 64.2322 92.4608 62.6786C92.1354 62.1386 92.1437 61.4656 92.5108 60.9422L93.8791 58.9899C94.3297 58.3585 94.2462 57.5111 93.7039 56.9628L90.5001 53.7725C89.9494 53.2242 89.0901 53.1494 88.456 53.5897L86.4953 54.9522C85.978 55.3095 85.3022 55.3178 84.7599 55.0104C83.1913 54.0965 81.4976 53.3903 79.7122 52.9251C79.1031 52.7589 78.6359 52.2854 78.5191 51.6623L78.1102 49.3278C77.9767 48.5718 77.3176 48.0151 76.5417 48.0151H71.9946C71.2186 48.0151 70.5595 48.5718 70.426 49.3278L70.0089 51.6623C69.9087 52.2854 69.4332 52.7589 68.8241 52.9251C67.0386 53.3987 65.3366 54.1048 63.7764 55.0021C63.2257 55.3178 62.5583 55.3095 62.041 54.9439L60.072 53.5897C59.4379 53.1494 58.5868 53.2242 58.0362 53.7642L54.8323 56.9628C54.2817 57.5028 54.2066 58.3585 54.6488 58.9899L56.0171 60.9422C56.3759 61.4573 56.3842 62.1386 56.0755 62.6786C55.1577 64.2322 54.4485 65.927 53.9813 67.7049C53.8145 68.3113 53.3389 68.7683 52.7131 68.8846L50.3687 69.3C49.6094 69.4329 49.0504 70.0892 49.0504 70.8619V75.3897C49.0504 76.1623 49.6094 76.8186 50.3687 76.9516L52.7131 77.3587C53.3389 77.4667 53.8145 77.9402 53.9813 78.5467C54.4569 80.3246 55.1661 82.0111 56.0755 83.5647C56.3925 84.113 56.3842 84.7776 56.0171 85.301L54.6488 87.2534C54.2066 87.8848 54.2817 88.7322 54.8323 89.2805L58.0362 92.479C58.5785 93.0191 59.4379 93.1021 60.072 92.6618L62.041 91.2993C62.5499 90.9421 63.2257 90.9338 63.7764 91.2412C65.3366 92.1467 67.0386 92.8529 68.8241 93.3264C69.4332 93.4843 69.9004 93.9578 70.0089 94.5809L70.426 96.9155C70.5595 97.6798 71.2186 98.2281 71.9946 98.2281H76.5417C77.3176 98.2281 77.9767 97.6798 78.1102 96.9155L78.5191 94.5809C78.6275 93.9578 79.1031 93.4843 79.7122 93.3264C81.4976 92.8446 83.1913 92.1384 84.7599 91.2412C85.3022 90.9171 85.9696 90.9255 86.4953 91.291L88.456 92.6535C89.0901 93.1021 89.9411 93.0191 90.5001 92.479L93.7039 89.2805C94.2462 88.7405 94.3297 87.8848 93.8791 87.2534L92.5108 85.301C92.1521 84.7859 92.1437 84.113 92.4608 83.5647C93.3702 82.0111 94.0794 80.3246 94.5549 78.5467C94.7135 77.9402 95.189 77.475 95.8148 77.3587L98.1593 76.9516C98.9268 76.8186 99.4775 76.1623 99.4775 75.3897V70.8619C99.4775 70.0892 98.9268 69.4329 98.1593 69.3ZM74.264 83.8637C68.3068 83.8637 63.476 79.0618 63.476 73.1216C63.476 67.1815 68.3068 62.3712 74.264 62.3712C80.2211 62.3712 85.0519 67.1898 85.0519 73.1216C85.0519 79.0535 80.2211 83.8637 74.264 83.8637Z" fill="#E2E2E2"/>
<path d="M78.1687 2.33008H61.215V25.4593C61.215 27.6775 59.4212 29.4637 57.1935 29.4637C56.1756 29.4637 55.1995 29.0815 54.4486 28.3754L53.2888 27.2953L51.153 29.2975C49.6261 30.7265 47.1899 30.7348 45.6547 29.2975L43.5188 27.2953L41.3829 29.2975C39.781 30.7514 37.3781 30.7099 35.868 29.2809L33.7321 27.2953L32.5557 28.3837C31.7964 29.0815 30.8203 29.472 29.8024 29.472C27.5914 29.472 25.7809 27.6692 25.7809 25.4676V2.33008H8.86062C3.97142 2.33008 0 6.28464 0 11.1531V80.1585C0 85.027 3.97142 88.9732 8.86062 88.9732H51.3866C51.1696 87.8018 51.4199 86.5473 52.1458 85.5171L52.9968 84.3042C52.296 82.9998 51.7203 81.6207 51.2781 80.1751L49.8347 79.9342C47.607 79.5437 45.9968 77.6329 45.9968 75.3815V70.8454C45.9968 68.6022 47.6154 66.6914 49.8347 66.3092L51.2781 66.0517C51.7203 64.6227 52.296 63.2436 52.9968 61.9227L52.1458 60.7097C50.8526 58.8571 51.0779 56.373 52.6965 54.7945L55.8836 51.6126C56.768 50.7319 57.9277 50.2667 59.1625 50.2667C60.122 50.2667 61.0398 50.5575 61.8241 51.0975L63.0422 51.9283C64.3521 51.247 65.7371 50.6655 67.1721 50.2335L67.4308 48.7796C67.8229 46.578 69.7419 44.9745 72.0029 44.9745H76.5417C78.7944 44.9745 80.7134 46.5863 81.1138 48.7962L81.3725 50.2335C82.7909 50.6572 84.1758 51.2304 85.5024 51.9449L86.7206 51.0975C86.8123 51.0393 86.9208 50.9645 87.0293 50.9147V11.1531C87.0293 6.28464 83.0662 2.33008 78.177 2.33008H78.1687ZM26.6403 79.228H9.96194C9.1276 79.228 8.43511 78.5634 8.43511 77.7077C8.43511 76.852 9.11926 76.1873 9.96194 76.1873H26.6403C27.4913 76.1873 28.1671 76.8686 28.1671 77.7077C28.1671 78.5468 27.4996 79.228 26.6403 79.228ZM26.6403 70.9118H9.96194C9.1276 70.9118 8.43511 70.2472 8.43511 69.3915C8.43511 68.5358 9.11926 67.8711 9.96194 67.8711H26.6403C27.4913 67.8711 28.1671 68.5524 28.1671 69.3915C28.1671 70.2306 27.4996 70.9118 26.6403 70.9118Z" fill="url(#paint2_linear_40006532_8926)" stroke="url(#paint3_linear_40006532_8926)" stroke-width="0.22" stroke-miterlimit="10"/>
</g>
<defs>
<linearGradient id="paint0_linear_40006532_8926" x1="28.8513" y1="2.73595" x2="62.3495" y2="11.66" gradientUnits="userSpaceOnUse">
<stop stop-color="#3ECCC3"/>
<stop offset="0.985" stop-color="#3638A8"/>
</linearGradient>
<linearGradient id="paint1_linear_40006532_8926" x1="28.7595" y1="14.8418" x2="58.2616" y2="14.8418" gradientUnits="userSpaceOnUse">
<stop stop-color="#52A5E9"/>
<stop offset="0.03" stop-color="#58A0EA"/>
<stop offset="0.21" stop-color="#798DF1"/>
<stop offset="0.39" stop-color="#937EF7"/>
<stop offset="0.58" stop-color="#A574FB"/>
<stop offset="0.78" stop-color="#B06EFE"/>
<stop offset="1" stop-color="#B46CFF"/>
</linearGradient>
<linearGradient id="paint2_linear_40006532_8926" x1="-1.68564e-06" y1="3.70736" x2="101.219" y2="26.8132" gradientUnits="userSpaceOnUse">
<stop stop-color="#3ECCC3"/>
<stop offset="0.985" stop-color="#3638A8"/>
</linearGradient>
<linearGradient id="paint3_linear_40006532_8926" x1="-0.0917766" y1="45.6558" x2="87.1044" y2="45.6558" gradientUnits="userSpaceOnUse">
<stop stop-color="#52A5E9"/>
<stop offset="0.03" stop-color="#58A0EA"/>
<stop offset="0.21" stop-color="#798DF1"/>
<stop offset="0.39" stop-color="#937EF7"/>
<stop offset="0.58" stop-color="#A574FB"/>
<stop offset="0.78" stop-color="#B06EFE"/>
<stop offset="1" stop-color="#B46CFF"/>
</linearGradient>
<clipPath id="clip0_40006532_8926">
<rect width="100" height="100" fill="white" transform="translate(0 -0.00512695)"/>
</clipPath>
</defs>
</svg>
