<svg width="100" height="100" viewBox="0 0 100 100" fill="none" xmlns="http://www.w3.org/2000/svg">
<path fill-rule="evenodd" clip-rule="evenodd" d="M94 25.7757C94 20.6174 91.959 15.6694 88.3098 12.0326C84.6607 8.39586 79.7127 6.33008 74.5544 6.33008H25.4456C20.2873 6.33008 15.3393 8.37112 11.6902 12.0203C8.04105 15.6694 6 20.6174 6 25.7757V74.8969C6 80.0551 8.04105 85.0031 11.6902 88.6399C15.3393 92.2767 20.2873 94.3301 25.4332 94.3301H74.5544C79.7127 94.3301 84.6607 92.289 88.2974 88.6399C91.9466 84.9907 93.9876 80.0428 93.9876 74.8969V25.7757H94ZM51.9916 34.6202L42.1698 64.0855C41.6379 65.6936 42.5038 67.4378 44.1119 67.9697C45.72 68.5016 47.4642 67.6357 47.9961 66.0276L57.8178 36.5623C58.3497 34.9542 57.4838 33.21 55.8757 32.6781C54.2676 32.1462 52.5235 33.0121 51.9916 34.6202ZM62.5679 42.6731L70.2125 50.3301L62.5679 57.9871C61.368 59.187 61.368 61.1291 62.5679 62.329C63.7678 63.5288 65.7099 63.5288 66.9098 62.329L76.7315 52.5072C77.9314 51.3073 77.9314 49.3652 76.7315 48.1653L66.9098 38.3436C65.7099 37.1437 63.7678 37.1437 62.5679 38.3436C61.368 39.5435 61.368 41.4855 62.5679 42.6854V42.6731ZM33.0902 38.3312L23.2685 48.153C22.0686 49.3528 22.0686 51.2949 23.2685 52.4948L33.0902 62.3166C34.2901 63.5165 36.2322 63.5165 37.4321 62.3166C38.632 61.1167 38.632 59.1746 37.4321 57.9747L29.7875 50.3177L37.4321 42.6607C38.632 41.4608 38.632 39.5187 37.4321 38.3188C36.2322 37.1189 34.2901 37.1189 33.0902 38.3188V38.3312Z" fill="url(#paint0_linear_40006532_8949)" stroke="url(#paint1_linear_40006532_8949)" stroke-width="0.22" stroke-miterlimit="10"/>
<defs>
<linearGradient id="paint0_linear_40006532_8949" x1="6" y1="7.72893" x2="108.393" y2="30.999" gradientUnits="userSpaceOnUse">
<stop stop-color="#3ECCC3"/>
<stop offset="0.985" stop-color="#3638A8"/>
</linearGradient>
<linearGradient id="paint1_linear_40006532_8949" x1="5.86393" y1="50.3301" x2="94.1361" y2="50.3301" gradientUnits="userSpaceOnUse">
<stop stop-color="#52A5E9"/>
<stop offset="0.03" stop-color="#58A0EA"/>
<stop offset="0.21" stop-color="#798DF1"/>
<stop offset="0.39" stop-color="#937EF7"/>
<stop offset="0.58" stop-color="#A574FB"/>
<stop offset="0.78" stop-color="#B06EFE"/>
<stop offset="1" stop-color="#B46CFF"/>
</linearGradient>
</defs>
</svg>
