<svg width="101" height="101" viewBox="0 0 101 101" fill="none" xmlns="http://www.w3.org/2000/svg">
<g clip-path="url(#clip0_40006532_9031)">
<path fill-rule="evenodd" clip-rule="evenodd" d="M55.25 28.6797C55.25 39.1797 46.74 47.6997 36.23 47.6997C25.72 47.6997 17.22 39.1797 17.22 28.6797C17.22 18.1797 25.73 9.65967 36.23 9.65967C46.73 9.65967 55.25 18.1697 55.25 28.6797ZM48.46 55.8997C47.93 58.1497 47.65 60.4997 47.65 62.9197C47.65 72.0797 51.69 80.2897 58.1 85.8697C54.24 88.1997 49.71 89.5497 44.87 89.5497H27.62C13.47 89.5397 2 78.0697 2 63.9297C2 62.4397 2.78 61.0697 4.15 60.4797C8.28 58.7097 18.51 55.2997 36.23 55.2997C40.79 55.2997 44.86 55.5297 48.45 55.8897L48.46 55.8997Z" fill="url(#paint0_linear_40006532_9031)" stroke="url(#paint1_linear_40006532_9031)" stroke-width="0.13" stroke-miterlimit="10"/>
<path fill-rule="evenodd" clip-rule="evenodd" d="M78.07 40.0896C65.47 40.0896 55.25 50.3096 55.25 62.9096C55.25 75.5096 65.47 85.7296 78.07 85.7296C90.67 85.7296 100.89 75.5096 100.89 62.9096C100.89 50.3096 90.67 40.0896 78.07 40.0896ZM75.22 77.8596C69.11 76.6996 64.29 71.8796 63.13 65.7696H71.02C71.79 67.6796 73.31 69.1996 75.22 69.9696V77.8596ZM80.93 77.8596V69.9696C82.84 69.1996 84.36 67.6796 85.13 65.7696H93.02C91.86 71.8796 87.04 76.6996 80.93 77.8596ZM85.13 60.0596C84 57.2696 81.27 55.3096 78.08 55.3096C74.89 55.3096 72.15 57.2796 71.03 60.0596H63.14C64.48 53.0196 70.66 47.6996 78.09 47.6996C85.52 47.6996 91.7 53.0196 93.04 60.0596H85.15H85.13Z" fill="#E2E2E2"/>
</g>
<defs>
<linearGradient id="paint0_linear_40006532_9031" x1="2" y1="10.9296" x2="68.9419" y2="21.6127" gradientUnits="userSpaceOnUse">
<stop stop-color="#3ECCC3"/>
<stop offset="0.985" stop-color="#3638A8"/>
</linearGradient>
<linearGradient id="paint1_linear_40006532_9031" x1="1.94" y1="49.5997" x2="58.2" y2="49.5997" gradientUnits="userSpaceOnUse">
<stop stop-color="#52A5E9"/>
<stop offset="0.03" stop-color="#58A0EA"/>
<stop offset="0.21" stop-color="#798DF1"/>
<stop offset="0.39" stop-color="#937EF7"/>
<stop offset="0.58" stop-color="#A574FB"/>
<stop offset="0.78" stop-color="#B06EFE"/>
<stop offset="1" stop-color="#B46CFF"/>
</linearGradient>
<clipPath id="clip0_40006532_9031">
<rect width="100" height="100" fill="white" transform="translate(0.968018 0.324463)"/>
</clipPath>
</defs>
</svg>
