<svg width="101" height="101" viewBox="0 0 101 101" fill="none" xmlns="http://www.w3.org/2000/svg">
<path d="M72.0723 25.7065L43.8371 12.8936C43.168 12.5817 42.3986 12.5817 41.7072 12.8936L13.5166 25.7065C12.591 26.1188 12 27.0435 12 28.0352V47.845C12 65.3486 22.4154 81.1029 38.5402 87.9438L41.7741 89.3254C42.1086 89.4591 42.4432 89.526 42.7777 89.526C43.1122 89.526 43.4691 89.448 43.7813 89.3254L47.0152 87.9438C48.1972 87.4313 49.3458 86.8631 50.4721 86.2726C48.5206 84.7128 46.7922 82.9078 45.3425 80.8912C45.1529 80.5681 44.9188 80.245 44.6623 79.8996C44.5396 79.7102 44.4058 79.5208 44.2831 79.3202C44.272 79.3202 44.2497 79.3314 44.2385 79.3425C42.8111 77.4373 40.9154 74.4513 40.7593 65.9836C40.5474 53.817 50.9628 39.7896 64.5897 38.3969C65.4372 38.3189 66.2847 38.2632 67.1545 38.2632C69.3625 38.2632 71.5147 38.5752 73.5665 39.0543V28.0129C73.5665 27.0101 72.9755 26.0965 72.05 25.6843L72.0723 25.7065Z" fill="url(#paint0_linear_40006532_9040)" stroke="url(#paint1_linear_40006532_9040)" stroke-width="0.11" stroke-miterlimit="10"/>
<path d="M67.1434 43.4106C55.1111 43.4106 45.3425 53.1707 45.3425 65.1926C45.3425 77.2144 55.1111 86.9745 67.1434 86.9745C79.1757 86.9745 88.9443 77.2144 88.9443 65.1926C88.9443 53.1707 79.1757 43.4106 67.1434 43.4106ZM77.4807 61.683L66.9427 72.3121C66.452 72.8023 65.8164 73.0809 65.125 73.0809C64.4336 73.0809 63.7868 72.8023 63.3073 72.3344L56.8173 65.8499C55.8136 64.8472 55.8136 63.2317 56.8173 62.2066C57.8209 61.2039 59.4378 61.2039 60.4637 62.2066L65.1362 66.875L73.8565 58.0842C74.8601 57.0815 76.4771 57.0592 77.4695 58.0842C78.4732 59.087 78.4955 60.7025 77.4695 61.6941L77.4918 61.6718L77.4807 61.683Z" fill="#E2E2E2"/>
<defs>
<linearGradient id="paint0_linear_40006532_9040" x1="12" y1="13.8815" x2="84.9198" y2="27.1549" gradientUnits="userSpaceOnUse">
<stop stop-color="#3ECCC3"/>
<stop offset="0.985" stop-color="#3638A8"/>
</linearGradient>
<linearGradient id="paint1_linear_40006532_9040" x1="11.9442" y1="51.0984" x2="73.6446" y2="51.0984" gradientUnits="userSpaceOnUse">
<stop stop-color="#52A5E9"/>
<stop offset="0.03" stop-color="#58A0EA"/>
<stop offset="0.21" stop-color="#798DF1"/>
<stop offset="0.39" stop-color="#937EF7"/>
<stop offset="0.58" stop-color="#A574FB"/>
<stop offset="0.78" stop-color="#B06EFE"/>
<stop offset="1" stop-color="#B46CFF"/>
</linearGradient>
</defs>
</svg>
