<svg width="70" height="94" viewBox="0 0 70 94" fill="none" xmlns="http://www.w3.org/2000/svg">
<path d="M35.182 0.665039C16.2859 0.665039 0.968018 16.2688 0.968018 35.5178C0.968018 54.7667 35.182 92.8463 35.182 92.8463C35.182 92.8463 69.3961 54.7667 69.3961 35.5178C69.3961 16.2688 54.0782 0.665039 35.182 0.665039ZM35.182 51.6519C27.2042 51.6519 20.7368 45.0638 20.7368 36.937C20.7368 28.8102 27.2042 22.2221 35.182 22.2221C43.1599 22.2221 49.6273 28.8102 49.6273 36.937C49.6273 45.0638 43.1599 51.6519 35.182 51.6519Z" fill="url(#paint0_linear_40006532_8621)" stroke="url(#paint1_linear_40006532_8621)" stroke-width="0.77" stroke-miterlimit="10"/>
<defs>
<linearGradient id="paint0_linear_40006532_8621" x1="0.968016" y1="2.13036" x2="82.3829" y2="15.8652" gradientUnits="userSpaceOnUse">
<stop stop-color="#3ECCC3"/>
<stop offset="0.985" stop-color="#3638A8"/>
</linearGradient>
<linearGradient id="paint1_linear_40006532_8621" x1="0.682045" y1="46.8266" x2="69.6821" y2="46.8266" gradientUnits="userSpaceOnUse">
<stop stop-color="#52A5E9"/>
<stop offset="0.03" stop-color="#58A0EA"/>
<stop offset="0.21" stop-color="#798DF1"/>
<stop offset="0.39" stop-color="#937EF7"/>
<stop offset="0.58" stop-color="#A574FB"/>
<stop offset="0.78" stop-color="#B06EFE"/>
<stop offset="1" stop-color="#B46CFF"/>
</linearGradient>
</defs>
</svg>
