<svg width="20" height="21" viewBox="0 0 20 21" fill="none" xmlns="http://www.w3.org/2000/svg">
<path d="M4.3 7.10171C5.3 7.10171 6.1 6.28921 6.1 5.30171C6.1 4.31421 5.2875 3.50171 4.3 3.50171C3.3125 3.50171 2.5 4.31421 2.5 5.30171C2.5 6.28921 3.3125 7.10171 4.3 7.10171ZM7.8125 8.46421V18.4892H10.9125V13.5392C10.9125 12.2267 11.1625 10.9642 12.775 10.9642C14.3875 10.9642 14.3875 12.4642 14.3875 13.6142V18.4892H17.5V12.9892C17.5 10.2892 16.925 8.21421 13.775 8.21421C12.2625 8.21421 11.25 9.03921 10.8375 9.82671H10.8V8.45171H7.825L7.8125 8.46421ZM2.75 8.46421H5.8625V18.4892H2.75V8.46421Z" fill="#999999"/>
</svg>
