<svg width="20" height="21" viewBox="0 0 20 21" fill="none" xmlns="http://www.w3.org/2000/svg">
<path d="M9.99996 8.28088C9.28166 8.28088 8.59279 8.56623 8.08488 9.07414C7.57697 9.58205 7.29163 10.2709 7.29163 10.9892C7.29163 11.7075 7.57697 12.3964 8.08488 12.9043C8.59279 13.4122 9.28166 13.6976 9.99996 13.6976C10.7183 13.6976 11.4071 13.4122 11.915 12.9043C12.423 12.3964 12.7083 11.7075 12.7083 10.9892C12.7083 10.2709 12.423 9.58205 11.915 9.07414C11.4071 8.56623 10.7183 8.28088 9.99996 8.28088Z" fill="#999999"/>
<path fill-rule="evenodd" clip-rule="evenodd" d="M5.64164 3.55756C8.53834 3.23667 11.4616 3.23667 14.3583 3.55756C15.9408 3.73423 17.2166 4.98006 17.4025 6.5684C17.7458 9.50562 17.7458 12.4728 17.4025 15.4101C17.2166 16.9984 15.9408 18.2442 14.3591 18.4217C11.4622 18.7427 8.53861 18.7427 5.64164 18.4217C4.05914 18.2442 2.78331 16.9984 2.59748 15.4109C2.25413 12.4734 2.25413 9.5059 2.59748 6.5684C2.78331 4.98006 4.05914 3.73423 5.64164 3.55756ZM14.1666 5.98923C13.9456 5.98923 13.7337 6.07703 13.5774 6.23331C13.4211 6.38959 13.3333 6.60155 13.3333 6.82256C13.3333 7.04358 13.4211 7.25554 13.5774 7.41182C13.7337 7.5681 13.9456 7.6559 14.1666 7.6559C14.3877 7.6559 14.5996 7.5681 14.7559 7.41182C14.9122 7.25554 15 7.04358 15 6.82256C15 6.60155 14.9122 6.38959 14.7559 6.23331C14.5996 6.07703 14.3877 5.98923 14.1666 5.98923ZM6.04164 10.9892C6.04164 9.93941 6.45868 8.9326 7.20101 8.19027C7.94334 7.44793 8.95016 7.0309 9.99998 7.0309C11.0498 7.0309 12.0566 7.44793 12.7989 8.19027C13.5413 8.9326 13.9583 9.93941 13.9583 10.9892C13.9583 12.039 13.5413 13.0459 12.7989 13.7882C12.0566 14.5305 11.0498 14.9476 9.99998 14.9476C8.95016 14.9476 7.94334 14.5305 7.20101 13.7882C6.45868 13.0459 6.04164 12.039 6.04164 10.9892Z" fill="#999999"/>
</svg>
