<svg width="20" height="21" viewBox="0 0 20 21" fill="none" xmlns="http://www.w3.org/2000/svg">
<path d="M12.813 14.9573C12.97 15.0403 13.173 15.0313 13.313 14.9073L13.318 14.9123C13.8534 14.4375 14.3945 13.9691 14.941 13.5073C15.114 13.3643 15.084 13.1353 14.947 12.9443L14.822 12.7743C14.477 12.3093 14.149 11.8683 14.149 10.9833V7.68326L14.15 7.34826C14.158 6.08326 14.164 4.92726 13.217 4.04326C12.404 3.26326 11.06 2.98926 10.03 2.98926C8.01704 2.98926 5.77004 3.73926 5.29604 6.22926C5.24904 6.49326 5.43904 6.63326 5.61204 6.67226L7.66604 6.89226C7.85604 6.88326 7.99605 6.69626 8.03204 6.50526C8.20805 5.64826 8.92804 5.23426 9.73504 5.23426C10.17 5.23426 10.664 5.39426 10.923 5.78426C11.187 6.17426 11.183 6.69426 11.18 7.16026V7.59226C10.98 7.61426 10.773 7.63592 10.559 7.65726C9.44604 7.77126 8.16204 7.90326 7.19904 8.32726C5.87304 8.89926 4.94004 10.0693 4.94004 11.7873C4.94004 13.9873 6.32704 15.0853 8.10804 15.0853C9.61404 15.0853 10.436 14.7313 11.597 13.5453L11.764 13.7913C12.038 14.1963 12.22 14.4663 12.811 14.9573H12.813ZM8.03005 11.4203C8.03005 9.61626 9.64705 9.28926 11.177 9.28926V9.85926C11.178 10.6353 11.179 11.2933 10.781 11.9923C10.445 12.5873 9.91105 12.9533 9.31604 12.9533C8.50405 12.9533 8.03005 12.3343 8.03005 11.4203ZM2.43504 15.1633C5.06404 16.7663 9.13304 19.2473 15.618 16.1603C15.898 16.0443 16.093 16.2383 15.817 16.5913C15.538 16.9493 13.312 18.9893 9.57004 18.9893C5.83205 18.9893 2.96804 16.4353 2.09404 15.3753C1.85404 15.1003 2.13004 14.9753 2.29304 15.0763L2.43504 15.1633Z" fill="#999999"/>
<path d="M15.828 14.9323C16.395 14.8623 17.296 14.9053 17.473 15.1363C17.608 15.3123 17.469 16.1023 17.24 16.6693C17.01 17.2323 16.668 17.6303 16.478 17.7843C16.288 17.9383 16.145 17.8783 16.248 17.6473C16.353 17.4173 16.932 15.9843 16.703 15.6843C16.49 15.4063 15.526 15.5073 15.078 15.5543L14.988 15.5633C14.8933 15.572 14.8156 15.58 14.755 15.5873C14.562 15.6083 14.51 15.6143 14.481 15.5553C14.407 15.3463 15.26 14.9993 15.828 14.9323Z" fill="#999999"/>
</svg>
