<svg width="20" height="21" viewBox="0 0 20 21" fill="none" xmlns="http://www.w3.org/2000/svg">
<path fill-rule="evenodd" clip-rule="evenodd" d="M9.99996 4.44763C9.00746 4.44763 7.84996 4.47097 6.72163 4.50263L6.67579 4.5043C5.52746 4.5368 4.60079 4.56263 3.87079 4.68347C3.10996 4.8093 2.47829 5.05013 1.97329 5.5693C1.46663 6.09013 1.24579 6.7343 1.14163 7.50513C1.04163 8.2468 1.04163 9.1868 1.04163 10.3551V11.6251C1.04163 12.7918 1.04163 13.7318 1.14163 14.4743C1.24496 15.2451 1.46663 15.8893 1.97329 16.4101C2.47829 16.9301 3.10996 17.1701 3.87079 17.296C4.60079 17.4168 5.52746 17.4426 6.67579 17.4751L6.72163 17.4768C7.85079 17.5085 9.00746 17.5318 9.99996 17.5318C10.9925 17.5318 12.15 17.5085 13.2783 17.4768L13.3241 17.4751C14.4725 17.4426 15.3991 17.4168 16.1291 17.296C16.89 17.1701 17.5216 16.9293 18.0266 16.4101C18.5333 15.8893 18.755 15.2451 18.8583 14.4743C18.9583 13.7326 18.9583 12.7926 18.9583 11.6243V10.3543C18.9583 9.1868 18.9583 8.2468 18.8583 7.50513C18.755 6.7343 18.5333 6.09013 18.0266 5.5693C17.5216 5.0493 16.89 4.8093 16.1291 4.68347C15.3991 4.56263 14.4725 4.5368 13.3233 4.5043L13.2783 4.50263C12.1858 4.46947 11.0929 4.45114 9.99996 4.44763ZM9.05996 13.1985C8.96492 13.2528 8.8573 13.2811 8.74785 13.2808C8.6384 13.2804 8.53097 13.2513 8.4363 13.1964C8.34163 13.1414 8.26305 13.0626 8.20841 12.9678C8.15377 12.8729 8.12499 12.7654 8.12496 12.656V9.32263C8.12499 9.21318 8.15377 9.10566 8.20841 9.01083C8.26305 8.91599 8.34163 8.83717 8.4363 8.78224C8.53097 8.72731 8.6384 8.69821 8.74785 8.69784C8.8573 8.69747 8.96492 8.72584 9.05996 8.78013L11.9766 10.4468C12.0722 10.5015 12.1517 10.5805 12.2069 10.6757C12.2622 10.771 12.2913 10.8792 12.2913 10.9893C12.2913 11.0994 12.2622 11.2076 12.2069 11.3029C12.1517 11.3981 12.0722 11.4771 11.9766 11.5318L9.05996 13.1985Z" fill="#999999"/>
</svg>
