<svg width="20" height="21" viewBox="0 0 20 21" fill="none" xmlns="http://www.w3.org/2000/svg">
<path d="M4.33333 3.87792C4.25756 3.87876 4.18248 3.89252 4.11133 3.91859V3.65592C4.11133 3.28859 4.41067 2.98926 4.778 2.98926H14.556C14.9233 2.98926 15.2227 3.28859 15.2227 3.65592V3.87792H4.33333ZM15.8893 5.43392H3.66667C3.29933 5.43392 3 5.73326 3 6.10059V18.3226C3 18.6899 3.29933 18.9893 3.66667 18.9893H8.53333L9.26533 15.2259H7.772C7.738 15.2259 4.33333 15.0653 4.33333 15.0653L7.426 14.8473L7.374 14.6033L6.05533 14.4133L7.31 14.3079L7.22733 14.0086L5.17733 13.6973C5.17733 13.6973 7.40467 13.4486 7.43867 13.4486H9.59333L9.758 12.5613C9.95067 11.4839 10.388 10.6899 11.0733 10.0993C11.762 9.50459 12.636 9.21126 13.698 9.21126C14.1267 9.21126 14.4 9.31192 14.5187 9.51992C14.5973 9.64392 14.6527 9.86392 14.7047 10.0926C14.754 10.3273 14.798 10.5399 14.768 10.6946C14.73 10.9246 14.4607 11.0046 13.97 11.0046H13.8013C12.9167 11.0046 12.3787 11.5133 12.198 12.5446L12.036 13.4479H13.0627C13.4453 13.4479 13.5833 13.7159 13.4773 14.3186C13.364 14.9459 13.118 15.2253 12.7367 15.2253H11.7113L10.9807 18.9893H15.8887C16.256 18.9893 16.5553 18.6899 16.5553 18.3226V6.10059C16.5553 5.9239 16.4852 5.75443 16.3603 5.62942C16.2354 5.50442 16.066 5.4341 15.8893 5.43392ZM15.4447 4.54459C15.4445 4.48577 15.421 4.4294 15.3794 4.38781C15.3379 4.34621 15.2815 4.32277 15.2227 4.32259H4.33333C4.27451 4.32277 4.21814 4.34621 4.17655 4.38781C4.13495 4.4294 4.11151 4.48577 4.11133 4.54459V4.98926H15.4447V4.54459Z" fill="#999999"/>
</svg>
